<mxfile host="Electron" modified="2024-03-27T15:10:23.515Z" agent="Mozilla/5.0 (X11; Linux x86_64) AppleWebKit/537.36 (KHTML, like Gecko) draw.io/24.1.0 Chrome/120.0.6099.109 Electron/28.1.0 Safari/537.36" etag="zNLc1J6w4L5YZS29Uy0n" version="24.1.0" type="device">
  <diagram name="Page-1" id="boveJDGjG2tvdPGK0rzz">
    <mxGraphModel dx="2932" dy="1650" grid="1" gridSize="10" guides="1" tooltips="1" connect="1" arrows="1" fold="1" page="1" pageScale="1" pageWidth="850" pageHeight="1100" math="0" shadow="0">
      <root>
        <mxCell id="0" />
        <mxCell id="1" parent="0" />
        <mxCell id="aIZxGeL6Wt5F0xaHkzTp-8" style="edgeStyle=orthogonalEdgeStyle;rounded=0;orthogonalLoop=1;jettySize=auto;html=1;entryX=0;entryY=0.5;entryDx=0;entryDy=0;" parent="1" source="aIZxGeL6Wt5F0xaHkzTp-1" target="aIZxGeL6Wt5F0xaHkzTp-5" edge="1">
          <mxGeometry relative="1" as="geometry" />
        </mxCell>
        <mxCell id="aIZxGeL6Wt5F0xaHkzTp-1" value="Host PC" style="ellipse;whiteSpace=wrap;html=1;aspect=fixed;" parent="1" vertex="1">
          <mxGeometry x="40" y="250" width="80" height="80" as="geometry" />
        </mxCell>
        <mxCell id="aIZxGeL6Wt5F0xaHkzTp-3" value="" style="swimlane;startSize=0;" parent="1" vertex="1">
          <mxGeometry x="800" y="570" width="320" height="170" as="geometry" />
        </mxCell>
        <mxCell id="aIZxGeL6Wt5F0xaHkzTp-4" value="secrets_ap.h" style="text;html=1;align=left;verticalAlign=middle;resizable=0;points=[];autosize=1;strokeColor=none;fillColor=none;fontStyle=1" parent="aIZxGeL6Wt5F0xaHkzTp-3" vertex="1">
          <mxGeometry x="20" y="10" width="100" height="30" as="geometry" />
        </mxCell>
        <mxCell id="aIZxGeL6Wt5F0xaHkzTp-21" value="ap.key" style="shape=note;whiteSpace=wrap;html=1;backgroundOutline=1;darkOpacity=0.05;fontSize=10;fillColor=#dae8fc;strokeColor=#6c8ebf;gradientColor=#7ea6e0;" parent="aIZxGeL6Wt5F0xaHkzTp-3" vertex="1">
          <mxGeometry x="20" y="50" width="80" height="100" as="geometry" />
        </mxCell>
        <mxCell id="dKu9qYQizD256QOD72Bg-11" value="ap.crt" style="shape=note;whiteSpace=wrap;html=1;backgroundOutline=1;darkOpacity=0.05;fontSize=10;fillColor=#dae8fc;strokeColor=#6c8ebf;gradientColor=#7ea6e0;" vertex="1" parent="aIZxGeL6Wt5F0xaHkzTp-3">
          <mxGeometry x="120" y="50" width="80" height="100" as="geometry" />
        </mxCell>
        <mxCell id="dKu9qYQizD256QOD72Bg-20" value="rootCA.pem" style="shape=note;whiteSpace=wrap;html=1;backgroundOutline=1;darkOpacity=0.05;fontSize=10;fillColor=#d5e8d4;strokeColor=#82b366;gradientColor=#97d077;" vertex="1" parent="aIZxGeL6Wt5F0xaHkzTp-3">
          <mxGeometry x="220" y="50" width="80" height="100" as="geometry" />
        </mxCell>
        <mxCell id="aIZxGeL6Wt5F0xaHkzTp-87" value="" style="edgeStyle=orthogonalEdgeStyle;rounded=0;orthogonalLoop=1;jettySize=auto;html=1;" parent="1" source="aIZxGeL6Wt5F0xaHkzTp-5" target="aIZxGeL6Wt5F0xaHkzTp-86" edge="1">
          <mxGeometry relative="1" as="geometry" />
        </mxCell>
        <mxCell id="aIZxGeL6Wt5F0xaHkzTp-5" value="Deployment" style="whiteSpace=wrap;html=1;fillColor=#b1ddf0;strokeColor=#10739e;" parent="1" vertex="1">
          <mxGeometry x="160" y="250" width="120" height="80" as="geometry" />
        </mxCell>
        <mxCell id="aIZxGeL6Wt5F0xaHkzTp-89" value="" style="edgeStyle=orthogonalEdgeStyle;rounded=0;orthogonalLoop=1;jettySize=auto;html=1;" parent="1" source="aIZxGeL6Wt5F0xaHkzTp-86" target="aIZxGeL6Wt5F0xaHkzTp-88" edge="1">
          <mxGeometry relative="1" as="geometry" />
        </mxCell>
        <mxCell id="RB_A1ZLZJlmN8KQF4HiO-4" style="edgeStyle=orthogonalEdgeStyle;rounded=0;orthogonalLoop=1;jettySize=auto;html=1;exitX=1;exitY=0.5;exitDx=0;exitDy=0;entryX=0;entryY=0.5;entryDx=0;entryDy=0;dashed=1;" parent="1" source="aIZxGeL6Wt5F0xaHkzTp-88" target="RB_A1ZLZJlmN8KQF4HiO-1" edge="1">
          <mxGeometry relative="1" as="geometry" />
        </mxCell>
        <mxCell id="aIZxGeL6Wt5F0xaHkzTp-86" value="Makefile" style="whiteSpace=wrap;html=1;fillColor=#b1ddf0;strokeColor=#10739e;" parent="1" vertex="1">
          <mxGeometry x="305" y="250" width="120" height="80" as="geometry" />
        </mxCell>
        <mxCell id="aIZxGeL6Wt5F0xaHkzTp-88" value="ssl_gen_ca.sh" style="whiteSpace=wrap;html=1;fillColor=#d5e8d4;strokeColor=#82b366;" parent="1" vertex="1">
          <mxGeometry x="450" y="250" width="120" height="80" as="geometry" />
        </mxCell>
        <mxCell id="WD53f1EHbr3vkASpY00j-1" style="edgeStyle=orthogonalEdgeStyle;rounded=0;orthogonalLoop=1;jettySize=auto;html=1;entryX=1;entryY=0.5;entryDx=0;entryDy=0;dashed=1;" parent="1" source="aIZxGeL6Wt5F0xaHkzTp-100" target="aIZxGeL6Wt5F0xaHkzTp-3" edge="1">
          <mxGeometry relative="1" as="geometry" />
        </mxCell>
        <mxCell id="aIZxGeL6Wt5F0xaHkzTp-100" value="application_processor.c" style="shape=cube;whiteSpace=wrap;html=1;boundedLbl=1;backgroundOutline=1;darkOpacity=0.05;darkOpacity2=0.1;" parent="1" vertex="1">
          <mxGeometry x="1200" y="615" width="180" height="80" as="geometry" />
        </mxCell>
        <mxCell id="RB_A1ZLZJlmN8KQF4HiO-1" value="" style="swimlane;startSize=0;" parent="1" vertex="1">
          <mxGeometry x="630" y="230" width="185" height="120" as="geometry" />
        </mxCell>
        <mxCell id="RB_A1ZLZJlmN8KQF4HiO-2" value="rootCA.pem" style="shape=note;whiteSpace=wrap;html=1;backgroundOutline=1;darkOpacity=0.05;fontSize=10;fillColor=#d5e8d4;strokeColor=#82b366;gradientColor=#97d077;" parent="RB_A1ZLZJlmN8KQF4HiO-1" vertex="1">
          <mxGeometry x="100" y="10" width="80" height="100" as="geometry" />
        </mxCell>
        <mxCell id="RB_A1ZLZJlmN8KQF4HiO-3" value="rootCA.key" style="shape=note;whiteSpace=wrap;html=1;backgroundOutline=1;darkOpacity=0.05;fontSize=10;fillColor=#d5e8d4;strokeColor=#82b366;gradientColor=#97d077;" parent="RB_A1ZLZJlmN8KQF4HiO-1" vertex="1">
          <mxGeometry x="10" y="10" width="80" height="100" as="geometry" />
        </mxCell>
        <mxCell id="RB_A1ZLZJlmN8KQF4HiO-5" value="openssl_ca.conf" style="whiteSpace=wrap;html=1;fillColor=#d5e8d4;strokeColor=#82b366;" parent="1" vertex="1">
          <mxGeometry x="450" y="130" width="120" height="80" as="geometry" />
        </mxCell>
        <mxCell id="RB_A1ZLZJlmN8KQF4HiO-6" style="edgeStyle=orthogonalEdgeStyle;rounded=0;orthogonalLoop=1;jettySize=auto;html=1;exitX=0.5;exitY=1;exitDx=0;exitDy=0;dashed=1;entryX=0.5;entryY=0;entryDx=0;entryDy=0;" parent="1" source="RB_A1ZLZJlmN8KQF4HiO-5" target="aIZxGeL6Wt5F0xaHkzTp-88" edge="1">
          <mxGeometry relative="1" as="geometry">
            <mxPoint x="520" y="340" as="sourcePoint" />
            <mxPoint x="570" y="220" as="targetPoint" />
          </mxGeometry>
        </mxCell>
        <mxCell id="dKu9qYQizD256QOD72Bg-1" style="edgeStyle=orthogonalEdgeStyle;rounded=0;orthogonalLoop=1;jettySize=auto;html=1;exitX=1;exitY=0.5;exitDx=0;exitDy=0;entryX=0;entryY=0.5;entryDx=0;entryDy=0;" edge="1" parent="1" source="tfGtcCwO9ZrFmJBdIWBy-17" target="tfGtcCwO9ZrFmJBdIWBy-18">
          <mxGeometry relative="1" as="geometry" />
        </mxCell>
        <mxCell id="tfGtcCwO9ZrFmJBdIWBy-17" value="Host PC" style="ellipse;whiteSpace=wrap;html=1;aspect=fixed;" parent="1" vertex="1">
          <mxGeometry x="40" y="710" width="80" height="80" as="geometry" />
        </mxCell>
        <mxCell id="dKu9qYQizD256QOD72Bg-3" value="" style="edgeStyle=orthogonalEdgeStyle;rounded=0;orthogonalLoop=1;jettySize=auto;html=1;" edge="1" parent="1" source="tfGtcCwO9ZrFmJBdIWBy-18" target="dKu9qYQizD256QOD72Bg-2">
          <mxGeometry relative="1" as="geometry" />
        </mxCell>
        <mxCell id="tfGtcCwO9ZrFmJBdIWBy-18" value="Build" style="whiteSpace=wrap;html=1;fillColor=#ffe6cc;strokeColor=#d79b00;" parent="1" vertex="1">
          <mxGeometry x="160" y="710" width="120" height="80" as="geometry" />
        </mxCell>
        <mxCell id="dKu9qYQizD256QOD72Bg-5" value="" style="edgeStyle=orthogonalEdgeStyle;rounded=0;orthogonalLoop=1;jettySize=auto;html=1;" edge="1" parent="1" source="dKu9qYQizD256QOD72Bg-2" target="dKu9qYQizD256QOD72Bg-4">
          <mxGeometry relative="1" as="geometry" />
        </mxCell>
        <mxCell id="dKu9qYQizD256QOD72Bg-2" value="common.mk" style="whiteSpace=wrap;html=1;fillColor=#ffe6cc;strokeColor=#d79b00;" vertex="1" parent="1">
          <mxGeometry x="300" y="710" width="120" height="80" as="geometry" />
        </mxCell>
        <mxCell id="dKu9qYQizD256QOD72Bg-10" value="" style="edgeStyle=orthogonalEdgeStyle;rounded=0;orthogonalLoop=1;jettySize=auto;html=1;" edge="1" parent="1" source="dKu9qYQizD256QOD72Bg-4" target="dKu9qYQizD256QOD72Bg-9">
          <mxGeometry relative="1" as="geometry" />
        </mxCell>
        <mxCell id="dKu9qYQizD256QOD72Bg-17" style="edgeStyle=orthogonalEdgeStyle;rounded=0;orthogonalLoop=1;jettySize=auto;html=1;exitX=0.5;exitY=1;exitDx=0;exitDy=0;dashed=1;entryX=0.232;entryY=0.01;entryDx=0;entryDy=0;entryPerimeter=0;" edge="1" parent="1" source="dKu9qYQizD256QOD72Bg-4" target="dKu9qYQizD256QOD72Bg-16">
          <mxGeometry relative="1" as="geometry">
            <mxPoint x="560" y="830" as="targetPoint" />
          </mxGeometry>
        </mxCell>
        <mxCell id="dKu9qYQizD256QOD72Bg-4" value="ssl_gen_device.sh" style="whiteSpace=wrap;html=1;fillColor=#ffe6cc;strokeColor=#d79b00;" vertex="1" parent="1">
          <mxGeometry x="440" y="710" width="120" height="80" as="geometry" />
        </mxCell>
        <mxCell id="dKu9qYQizD256QOD72Bg-8" style="edgeStyle=orthogonalEdgeStyle;rounded=0;orthogonalLoop=1;jettySize=auto;html=1;exitX=0.5;exitY=1;exitDx=0;exitDy=0;entryX=0.5;entryY=0;entryDx=0;entryDy=0;dashed=1;" edge="1" parent="1" source="dKu9qYQizD256QOD72Bg-6" target="dKu9qYQizD256QOD72Bg-4">
          <mxGeometry relative="1" as="geometry" />
        </mxCell>
        <mxCell id="dKu9qYQizD256QOD72Bg-6" value="openssl_device.conf" style="whiteSpace=wrap;html=1;fillColor=#ffe6cc;strokeColor=#d79b00;" vertex="1" parent="1">
          <mxGeometry x="440" y="600" width="120" height="80" as="geometry" />
        </mxCell>
        <mxCell id="dKu9qYQizD256QOD72Bg-28" style="edgeStyle=orthogonalEdgeStyle;rounded=0;orthogonalLoop=1;jettySize=auto;html=1;exitX=1;exitY=0.5;exitDx=0;exitDy=0;entryX=0;entryY=0.5;entryDx=0;entryDy=0;dashed=1;" edge="1" parent="1" source="dKu9qYQizD256QOD72Bg-9" target="aIZxGeL6Wt5F0xaHkzTp-3">
          <mxGeometry relative="1" as="geometry" />
        </mxCell>
        <mxCell id="dKu9qYQizD256QOD72Bg-29" style="edgeStyle=orthogonalEdgeStyle;rounded=0;orthogonalLoop=1;jettySize=auto;html=1;exitX=1;exitY=0.5;exitDx=0;exitDy=0;entryX=0;entryY=0.5;entryDx=0;entryDy=0;dashed=1;" edge="1" parent="1" source="dKu9qYQizD256QOD72Bg-9" target="dKu9qYQizD256QOD72Bg-21">
          <mxGeometry relative="1" as="geometry" />
        </mxCell>
        <mxCell id="dKu9qYQizD256QOD72Bg-9" value="make_ssl_headers.py" style="whiteSpace=wrap;html=1;fillColor=#ffe6cc;strokeColor=#d79b00;" vertex="1" parent="1">
          <mxGeometry x="580" y="710" width="120" height="80" as="geometry" />
        </mxCell>
        <mxCell id="dKu9qYQizD256QOD72Bg-19" style="edgeStyle=orthogonalEdgeStyle;rounded=0;orthogonalLoop=1;jettySize=auto;html=1;exitX=0.772;exitY=0;exitDx=0;exitDy=0;entryX=0.5;entryY=1;entryDx=0;entryDy=0;dashed=1;exitPerimeter=0;" edge="1" parent="1" source="dKu9qYQizD256QOD72Bg-16" target="dKu9qYQizD256QOD72Bg-9">
          <mxGeometry relative="1" as="geometry" />
        </mxCell>
        <mxCell id="dKu9qYQizD256QOD72Bg-16" value="" style="swimlane;startSize=0;" vertex="1" parent="1">
          <mxGeometry x="440" y="850" width="260" height="200" as="geometry" />
        </mxCell>
        <mxCell id="dKu9qYQizD256QOD72Bg-12" value="ap.key" style="shape=note;whiteSpace=wrap;html=1;backgroundOutline=1;darkOpacity=0.05;fontSize=10;fillColor=#dae8fc;strokeColor=#6c8ebf;gradientColor=#7ea6e0;" vertex="1" parent="dKu9qYQizD256QOD72Bg-16">
          <mxGeometry x="20" y="20" width="80" height="100" as="geometry" />
        </mxCell>
        <mxCell id="dKu9qYQizD256QOD72Bg-13" value="ap.crt" style="shape=note;whiteSpace=wrap;html=1;backgroundOutline=1;darkOpacity=0.05;fontSize=10;fillColor=#dae8fc;strokeColor=#6c8ebf;gradientColor=#7ea6e0;" vertex="1" parent="dKu9qYQizD256QOD72Bg-16">
          <mxGeometry x="120" y="20" width="80" height="100" as="geometry" />
        </mxCell>
        <mxCell id="dKu9qYQizD256QOD72Bg-14" value="cmp.key" style="shape=note;whiteSpace=wrap;html=1;backgroundOutline=1;darkOpacity=0.05;fontSize=10;fillColor=#e6d0de;strokeColor=#996185;gradientColor=#d5739d;" vertex="1" parent="dKu9qYQizD256QOD72Bg-16">
          <mxGeometry x="50" y="85" width="80" height="100" as="geometry" />
        </mxCell>
        <mxCell id="dKu9qYQizD256QOD72Bg-15" value="cmp.crt" style="shape=note;whiteSpace=wrap;html=1;backgroundOutline=1;darkOpacity=0.05;fontSize=10;fillColor=#e6d0de;strokeColor=#996185;gradientColor=#d5739d;" vertex="1" parent="dKu9qYQizD256QOD72Bg-16">
          <mxGeometry x="150" y="85" width="80" height="100" as="geometry" />
        </mxCell>
        <mxCell id="dKu9qYQizD256QOD72Bg-21" value="" style="swimlane;startSize=0;" vertex="1" parent="1">
          <mxGeometry x="800" y="780" width="320" height="170" as="geometry" />
        </mxCell>
        <mxCell id="dKu9qYQizD256QOD72Bg-22" value="secrets_component.h" style="text;html=1;align=left;verticalAlign=middle;resizable=0;points=[];autosize=1;strokeColor=none;fillColor=none;fontStyle=1" vertex="1" parent="dKu9qYQizD256QOD72Bg-21">
          <mxGeometry x="20" y="10" width="140" height="30" as="geometry" />
        </mxCell>
        <mxCell id="dKu9qYQizD256QOD72Bg-25" value="rootCA.pem" style="shape=note;whiteSpace=wrap;html=1;backgroundOutline=1;darkOpacity=0.05;fontSize=10;fillColor=#d5e8d4;strokeColor=#82b366;gradientColor=#97d077;" vertex="1" parent="dKu9qYQizD256QOD72Bg-21">
          <mxGeometry x="220" y="50" width="80" height="100" as="geometry" />
        </mxCell>
        <mxCell id="dKu9qYQizD256QOD72Bg-26" value="cmp.key" style="shape=note;whiteSpace=wrap;html=1;backgroundOutline=1;darkOpacity=0.05;fontSize=10;fillColor=#e6d0de;strokeColor=#996185;gradientColor=#d5739d;" vertex="1" parent="dKu9qYQizD256QOD72Bg-21">
          <mxGeometry x="20" y="50" width="80" height="100" as="geometry" />
        </mxCell>
        <mxCell id="dKu9qYQizD256QOD72Bg-27" value="cmp.crt" style="shape=note;whiteSpace=wrap;html=1;backgroundOutline=1;darkOpacity=0.05;fontSize=10;fillColor=#e6d0de;strokeColor=#996185;gradientColor=#d5739d;" vertex="1" parent="dKu9qYQizD256QOD72Bg-21">
          <mxGeometry x="120" y="50" width="80" height="100" as="geometry" />
        </mxCell>
        <mxCell id="dKu9qYQizD256QOD72Bg-31" style="edgeStyle=orthogonalEdgeStyle;rounded=0;orthogonalLoop=1;jettySize=auto;html=1;exitX=0.002;exitY=0.436;exitDx=0;exitDy=0;exitPerimeter=0;entryX=1;entryY=0.5;entryDx=0;entryDy=0;dashed=1;" edge="1" parent="1" source="dKu9qYQizD256QOD72Bg-30" target="dKu9qYQizD256QOD72Bg-21">
          <mxGeometry relative="1" as="geometry" />
        </mxCell>
        <mxCell id="dKu9qYQizD256QOD72Bg-30" value="component.c" style="shape=cube;whiteSpace=wrap;html=1;boundedLbl=1;backgroundOutline=1;darkOpacity=0.05;darkOpacity2=0.1;" vertex="1" parent="1">
          <mxGeometry x="1200" y="830" width="180" height="80" as="geometry" />
        </mxCell>
        <mxCell id="dKu9qYQizD256QOD72Bg-33" value="Deployment" style="text;html=1;align=left;verticalAlign=middle;whiteSpace=wrap;rounded=0;fontFamily=Helvetica;fontSize=32;" vertex="1" parent="1">
          <mxGeometry x="40" y="60" width="200" height="30" as="geometry" />
        </mxCell>
        <mxCell id="dKu9qYQizD256QOD72Bg-35" value="Build" style="text;html=1;align=left;verticalAlign=middle;whiteSpace=wrap;rounded=0;fontFamily=Helvetica;fontSize=32;" vertex="1" parent="1">
          <mxGeometry x="40" y="540" width="200" height="30" as="geometry" />
        </mxCell>
      </root>
    </mxGraphModel>
  </diagram>
</mxfile>
